<svg width="36" height="36" viewBox="0 0 36 36" fill="none" xmlns="http://www.w3.org/2000/svg">
<g clip-path="url(#clip0_320_250)">
<path d="M36 24.3633C36 19.1159 32.4643 14.5313 27.4785 13.1498C27.1651 5.84583 21.1259 0 13.7461 0C6.16635 0 0 6.16635 0 13.7461C0 16.2164 0.657532 18.6216 1.90613 20.7331L0.0505371 27.4414L6.75906 25.5861C8.70007 26.7339 10.8896 27.3804 13.1495 27.4779C14.5308 32.4641 19.1157 36 24.3633 36C26.4578 36 28.4947 35.4422 30.2844 34.3823L35.9492 35.9492L34.3823 30.2844C35.4422 28.4947 36 26.4578 36 24.3633ZM7.09195 23.3053L3.0759 24.4163L4.18689 20.4002L3.93365 20.0042C2.74026 18.1371 2.10938 15.973 2.10938 13.7461C2.10938 7.32953 7.32953 2.10938 13.7461 2.10938C20.1627 2.10938 25.3828 7.32953 25.3828 13.7461C25.3828 20.1627 20.1627 25.3828 13.7461 25.3828C11.5192 25.3828 9.35541 24.7519 7.48801 23.5585L7.09195 23.3053ZM32.9241 32.9241L29.9441 32.0996L29.5461 32.3586C28.0033 33.3608 26.2109 33.8906 24.3633 33.8906C20.239 33.8906 16.6149 31.224 15.3309 27.4002C21.6464 26.6721 26.6721 21.6464 27.4005 15.3306C31.224 16.6149 33.8906 20.239 33.8906 24.3633C33.8906 26.2109 33.3608 28.0033 32.3586 29.5461L32.0996 29.9441L32.9241 32.9241Z" fill="black"/>
<path d="M12.6914 19.0547H14.8008V21.1641H12.6914V19.0547Z" fill="black"/>
<path d="M15.8555 10.5469C15.8555 11.1459 15.6116 11.6988 15.1688 12.1039L12.6914 14.3715V16.9453H14.8008V15.3004L16.5929 13.6601C17.4647 12.8622 17.9648 11.7276 17.9648 10.5469C17.9648 8.22052 16.0724 6.32812 13.7461 6.32812C11.4197 6.32812 9.52734 8.22052 9.52734 10.5469H11.6367C11.6367 9.3837 12.5829 8.4375 13.7461 8.4375C14.9093 8.4375 15.8555 9.3837 15.8555 10.5469Z" fill="black"/>
</g>
<defs>
<clipPath id="clip0_320_250">
<rect width="36" height="36" fill="white"/>
</clipPath>
</defs>
</svg>
