<svg width="61" height="42" viewBox="0 0 61 42" fill="none" xmlns="http://www.w3.org/2000/svg">
<path d="M50.9521 35.6399C50.4601 35.6399 50.0613 36.0245 50.0613 36.4989C50.0613 36.9733 50.4601 37.3579 50.9521 37.3579H50.9616C51.4536 37.3579 51.8477 36.9733 51.8477 36.4989C51.8477 36.0245 51.4442 35.6399 50.9521 35.6399Z" fill="black"/>
<path d="M21.4357 35.6399C20.9437 35.6399 20.5448 36.0245 20.5448 36.4989C20.5448 36.9733 20.9437 37.3579 21.4357 37.3579H21.4452C21.9371 37.3579 22.3313 36.9733 22.3313 36.4989C22.3313 36.0245 21.9278 35.6399 21.4357 35.6399Z" fill="black"/>
<path d="M59.9108 26.0844L57.0619 24.1205L57.0208 15.8136C57.0144 14.5343 56.0252 13.6057 54.6687 13.6057H47.7533C47.8343 13.1528 47.7304 12.7075 47.4565 12.3633C47.1562 11.986 46.6836 11.7695 46.1599 11.7695H39.9518C39.4598 11.7695 39.0609 12.1541 39.0609 12.6285C39.0609 13.1029 39.4598 13.4875 39.9518 13.4875L45.9509 13.4876L39.795 35.64H26.266C26.2843 34.7797 26.0308 33.9734 25.5223 33.3344C24.8209 32.4531 23.7321 31.9676 22.4563 31.9676C20.1634 31.9676 17.8873 33.5361 16.9908 35.64L13.0752 35.6399L14.8158 29.3763C14.9431 28.9181 14.6612 28.4471 14.1858 28.3242C13.7114 28.2019 13.2222 28.4733 13.0947 28.9317L11.3089 35.3586C11.1678 35.8662 11.2629 36.3786 11.5698 36.7642C11.8701 37.1415 12.3427 37.358 12.8664 37.358H16.6056C16.5873 38.2183 16.8406 39.0245 17.3491 39.6635C18.0505 40.5449 19.1394 41.0303 20.4152 41.0303C22.7081 41.0303 24.9841 39.4618 25.8807 37.358H46.1221C46.1038 38.2183 46.3572 39.0245 46.8657 39.6635C47.5671 40.5449 48.6559 41.0303 49.9317 41.0303C52.2246 41.0303 54.5006 39.4618 55.3972 37.358H55.713C57.1641 37.358 58.6028 36.2718 58.9881 34.885L60.7402 28.58C61.0168 27.584 60.6991 26.6278 59.9108 26.0844ZM24.3838 36.2767C23.9265 37.9222 22.1092 39.3123 20.4152 39.3123C19.7061 39.3123 19.1192 39.0656 18.7626 38.6177C18.3792 38.136 18.2815 37.4625 18.4876 36.7213C18.9448 35.0757 20.7622 33.6855 22.4563 33.6855C23.1654 33.6855 23.7523 33.9322 24.1088 34.3802C24.4921 34.862 24.5899 35.5354 24.3838 36.2767ZM55.278 23.7047H49.5081C49.3575 23.7047 49.1532 23.6737 49.0353 23.5255C48.9313 23.3949 48.9093 23.1851 48.9747 22.9498L49.74 20.1956C49.9176 19.5566 50.6438 18.9961 51.294 18.9961H55.2547L55.278 23.7047ZM53.9003 36.2767C53.443 37.9222 51.6257 39.3123 49.9317 39.3123C49.2226 39.3123 48.6357 39.0656 48.2791 38.6177C47.8957 38.136 47.7981 37.4625 48.0042 36.7213C48.4613 35.0757 50.2788 33.6855 51.9728 33.6855C52.6819 33.6855 53.2688 33.9322 53.6254 34.3802C54.0087 34.862 54.1064 35.5354 53.9003 36.2767ZM57.267 34.4405C57.0957 35.0568 56.4142 35.5987 55.7825 35.6365C55.8 34.7775 55.5465 33.9726 55.0387 33.3345C54.3373 32.4532 53.2485 31.9677 51.9727 31.9677C49.6798 31.9677 47.4037 33.5362 46.5072 35.6401H41.6395L43.2031 30.0133H53.9452C54.4372 30.0133 54.8361 29.6287 54.8361 29.1543C54.8361 28.6799 54.4372 28.2954 53.9452 28.2954H43.6805L47.2851 15.3238H54.6685C54.9275 15.3238 55.2368 15.4102 55.2389 15.822L55.2461 17.2783H51.2939C49.8427 17.2783 48.4041 18.3645 48.0188 19.7511L47.2535 22.5053C47.0436 23.2606 47.1778 24.0136 47.6217 24.5714C48.0523 25.1125 48.7399 25.4228 49.508 25.4228H55.8874L58.8744 27.4821C59.1284 27.6571 59.0493 28.0264 59.019 28.1355L58.9746 28.2954H57.7539C57.2619 28.2954 56.863 28.6799 56.863 29.1543C56.863 29.6287 57.2619 30.0133 57.7539 30.0133H58.4972L57.267 34.4405Z" fill="black"/>
<path d="M22.8126 28.1769C30.654 28.1769 37.0335 22.0257 37.0335 14.4646C37.0335 6.90344 30.654 0.752197 22.8126 0.752197C14.9712 0.752197 8.59167 6.90355 8.59167 14.4646C8.59167 22.0256 14.9712 28.1769 22.8126 28.1769ZM22.8126 2.47017C29.6716 2.47017 35.2518 7.85084 35.2518 14.4646C35.2518 21.0783 29.6717 26.459 22.8126 26.459C15.9535 26.459 10.3734 21.0783 10.3734 14.4646C10.3734 7.85084 15.9536 2.47017 22.8126 2.47017Z" fill="black"/>
<path d="M19.004 18.9958C19.2319 18.9958 19.46 18.912 19.6339 18.7442L21.5697 16.8776C21.9443 17.0577 22.3662 17.1597 22.8125 17.1597C24.3538 17.1597 25.6076 15.9506 25.6076 14.4645C25.6076 14.0342 25.5019 13.6274 25.315 13.2662L30.1074 8.64531C30.4553 8.30985 30.4553 7.76594 30.1074 7.43059C29.7595 7.09502 29.1954 7.09513 28.8476 7.43059L24.0553 12.0515C23.6806 11.8713 23.2587 11.7695 22.8125 11.7695C21.2712 11.7695 20.0174 12.9786 20.0174 14.4646C20.0174 14.8949 20.1231 15.3018 20.3098 15.663L18.374 17.5296C18.0261 17.8651 18.0261 18.409 18.374 18.7443C18.548 18.912 18.7759 18.9958 19.004 18.9958ZM22.8125 13.4873C23.3713 13.4873 23.8259 13.9258 23.8259 14.4645C23.8259 15.0033 23.3712 15.4417 22.8125 15.4417C22.2538 15.4417 21.7991 15.0033 21.7991 14.4645C21.7991 13.9258 22.2538 13.4873 22.8125 13.4873Z" fill="black"/>
<path d="M22.8124 7.06064C23.3043 7.06064 23.7032 6.67604 23.7032 6.20165V5.28355C23.7032 4.80916 23.3043 4.42456 22.8124 4.42456C22.3204 4.42456 21.9215 4.80916 21.9215 5.28355V6.20165C21.9215 6.67616 22.3204 7.06064 22.8124 7.06064Z" fill="black"/>
<path d="M22.8124 21.8684C22.3204 21.8684 21.9215 22.253 21.9215 22.7274V23.6455C21.9215 24.1199 22.3204 24.5045 22.8124 24.5045C23.3043 24.5045 23.7032 24.1199 23.7032 23.6455V22.7274C23.7032 22.253 23.3043 21.8684 22.8124 21.8684Z" fill="black"/>
<path d="M31.3828 15.3237H32.3349C32.8269 15.3237 33.2258 14.9391 33.2258 14.4647C33.2258 13.9903 32.8269 13.6057 32.3349 13.6057H31.3828C30.8908 13.6057 30.4919 13.9903 30.4919 14.4647C30.4919 14.9391 30.8908 15.3237 31.3828 15.3237Z" fill="black"/>
<path d="M15.134 14.4647C15.134 13.9903 14.7351 13.6057 14.2431 13.6057H13.291C12.799 13.6057 12.4001 13.9903 12.4001 14.4647C12.4001 14.9391 12.799 15.3237 13.291 15.3237H14.2431C14.7351 15.3237 15.134 14.9391 15.134 14.4647Z" fill="black"/>
<path d="M10.4347 25.5405H0.913302C0.42132 25.5405 0.0224609 25.9251 0.0224609 26.3995C0.0224609 26.8739 0.42132 27.2585 0.913302 27.2585H10.4347C10.9267 27.2585 11.3256 26.8739 11.3256 26.3995C11.3256 25.9251 10.9267 25.5405 10.4347 25.5405Z" fill="black"/>
<path d="M9.48236 29.2131H3.76939C3.2774 29.2131 2.87854 29.5977 2.87854 30.0721C2.87854 30.5465 3.2774 30.9311 3.76939 30.9311H9.48236C9.97435 30.9311 10.3732 30.5465 10.3732 30.0721C10.3732 29.5977 9.97435 29.2131 9.48236 29.2131Z" fill="black"/>
<path d="M8.53061 32.8855H6.62633C6.13434 32.8855 5.73547 33.2701 5.73547 33.7445C5.73547 34.2189 6.13434 34.6035 6.62633 34.6035H8.53061C9.0226 34.6035 9.42146 34.2189 9.42146 33.7445C9.42146 33.2701 9.0226 32.8855 8.53061 32.8855Z" fill="black"/>
</svg>
