<svg width="45" height="36" viewBox="0 0 45 36" fill="none" xmlns="http://www.w3.org/2000/svg">
<path d="M29.8075 28.5413H4.76101C3.67244 28.54 2.62882 28.107 1.85908 27.3372C1.08935 26.5675 0.656333 25.5239 0.655029 24.4353V4.72659C0.656333 3.63801 1.08935 2.5944 1.85908 1.82466C2.62882 1.05492 3.67244 0.621909 4.76101 0.620605H35.9665C37.055 0.621909 38.0986 1.05492 38.8684 1.82466C39.6381 2.5944 40.0711 3.63801 40.0724 4.72659V18.7362C40.0724 18.954 39.9859 19.1629 39.8319 19.3169C39.6779 19.4709 39.469 19.5574 39.2512 19.5574C39.0335 19.5574 38.8246 19.4709 38.6706 19.3169C38.5166 19.1629 38.43 18.954 38.43 18.7362V4.72659C38.43 4.0732 38.1705 3.44658 37.7085 2.98457C37.2465 2.52255 36.6198 2.263 35.9665 2.263H4.76101C4.10763 2.263 3.481 2.52255 3.01899 2.98457C2.55698 3.44658 2.29742 4.0732 2.29742 4.72659V24.4353C2.29742 25.0887 2.55698 25.7153 3.01899 26.1773C3.481 26.6393 4.10763 26.8989 4.76101 26.8989H29.8075C30.0253 26.8989 30.2342 26.9854 30.3882 27.1394C30.5422 27.2934 30.6287 27.5023 30.6287 27.7201C30.6287 27.9379 30.5422 28.1467 30.3882 28.3008C30.2342 28.4548 30.0253 28.5413 29.8075 28.5413Z" fill="#0A0A0A"/>
<path d="M39.2512 14.581H1.47623C1.25843 14.581 1.04956 14.4945 0.895552 14.3405C0.741548 14.1865 0.655029 13.9776 0.655029 13.7598V8.83267C0.655029 8.61488 0.741548 8.406 0.895552 8.252C1.04956 8.09799 1.25843 8.01147 1.47623 8.01147H39.2512C39.469 8.01147 39.6779 8.09799 39.8319 8.252C39.9859 8.406 40.0724 8.61488 40.0724 8.83267V13.7598C40.0724 13.9776 39.9859 14.1865 39.8319 14.3405C39.6779 14.4945 39.469 14.581 39.2512 14.581ZM2.29742 12.9387H38.43V9.65387H2.29742V12.9387Z" fill="#0A0A0A"/>
<path d="M29.397 19.5081H26.1122C25.8944 19.5081 25.6855 19.4216 25.5315 19.2676C25.3775 19.1136 25.291 18.9047 25.291 18.6869C25.291 18.4691 25.3775 18.2602 25.5315 18.1062C25.6855 17.9522 25.8944 17.8657 26.1122 17.8657H29.397C29.6148 17.8657 29.8237 17.9522 29.9777 18.1062C30.1317 18.2602 30.2182 18.4691 30.2182 18.6869C30.2182 18.9047 30.1317 19.1136 29.9777 19.2676C29.8237 19.4216 29.6148 19.5081 29.397 19.5081Z" fill="#0A0A0A"/>
<path d="M22.8268 19.5081H19.542C19.3242 19.5081 19.1154 19.4216 18.9613 19.2676C18.8073 19.1136 18.7208 18.9047 18.7208 18.6869C18.7208 18.4691 18.8073 18.2602 18.9613 18.1062C19.1154 17.9522 19.3242 17.8657 19.542 17.8657H22.8268C23.0446 17.8657 23.2535 17.9522 23.4075 18.1062C23.5615 18.2602 23.648 18.4691 23.648 18.6869C23.648 18.9047 23.5615 19.1136 23.4075 19.2676C23.2535 19.4216 23.0446 19.5081 22.8268 19.5081Z" fill="#0A0A0A"/>
<path d="M16.2584 24.4353H6.40408C6.18629 24.4353 5.97741 24.3488 5.82341 24.1948C5.6694 24.0408 5.58289 23.8319 5.58289 23.6141V18.6869C5.58289 18.4691 5.6694 18.2602 5.82341 18.1062C5.97741 17.9522 6.18629 17.8657 6.40408 17.8657H16.2584C16.4762 17.8657 16.6851 17.9522 16.8391 18.1062C16.9931 18.2602 17.0796 18.4691 17.0796 18.6869V23.6141C17.0796 23.8319 16.9931 24.0408 16.8391 24.1948C16.6851 24.3488 16.4762 24.4353 16.2584 24.4353ZM7.22528 22.7929H15.4372V19.5081H7.22528V22.7929Z" fill="#0A0A0A"/>
<path d="M36.7881 35.111C36.7234 35.111 36.659 35.1036 36.596 35.0889C34.3283 34.5337 32.3096 33.2401 30.8577 31.4118C29.4059 29.5835 28.6032 27.3243 28.5762 24.9898V19.4492C28.5761 19.2349 28.6598 19.0291 28.8094 18.8756C28.959 18.7222 29.1626 18.6333 29.3768 18.628C31.8056 18.5209 34.1994 18.0091 36.4597 17.1137C36.5633 17.0688 36.6751 17.0457 36.7881 17.0457C36.9011 17.0457 37.0129 17.0688 37.1166 17.1137C39.3462 18.0842 41.7474 18.599 44.1789 18.628C44.3967 18.628 44.6056 18.7145 44.7596 18.8685C44.9136 19.0225 45.0001 19.2314 45.0001 19.4492V24.9898C44.9734 27.3246 44.1709 29.5842 42.719 31.4128C41.2671 33.2414 39.2483 34.5352 36.9803 35.0905C36.9172 35.1047 36.8528 35.1116 36.7881 35.111V35.111ZM30.2186 20.2244V24.9873C30.2431 26.9197 30.8981 28.7912 32.0839 30.3171C33.2698 31.843 34.9216 32.9398 36.7881 33.4407C38.6546 32.9398 40.3065 31.843 41.4923 30.3171C42.6782 28.7912 43.3332 26.9197 43.3577 24.9873V20.2474C41.0998 20.1234 38.8789 19.6201 36.7881 18.7585C34.6821 19.5671 32.4685 20.061 30.2186 20.2244Z" fill="#0A0A0A"/>
<path d="M35.9668 28.5415C35.8046 28.5415 35.646 28.4935 35.511 28.4035L33.0474 26.7611C32.8662 26.6402 32.7405 26.4523 32.6978 26.2387C32.6551 26.0251 32.6991 25.8033 32.82 25.6221C32.9408 25.4409 33.1287 25.3151 33.3423 25.2725C33.5559 25.2298 33.7777 25.2738 33.959 25.3946L35.8625 26.6634L39.9028 22.6231C40.0576 22.4735 40.2651 22.3907 40.4804 22.3926C40.6957 22.3945 40.9017 22.4808 41.0539 22.6331C41.2062 22.7854 41.2926 22.9913 41.2944 23.2066C41.2963 23.422 41.2135 23.6294 41.0639 23.7843L36.5474 28.3008C36.3934 28.4549 36.1846 28.5414 35.9668 28.5415V28.5415Z" fill="#0A0A0A"/>
</svg>
