<svg width="40" height="45" viewBox="0 0 40 45" fill="none" xmlns="http://www.w3.org/2000/svg">
<path d="M31.8917 18.7431C31.8917 12.1226 26.5029 6.74341 19.892 6.74341C13.2811 6.74341 7.89233 12.1226 7.89233 18.7431C7.89233 25.354 13.2715 30.7428 19.892 30.7428C26.5125 30.7428 31.8917 25.354 31.8917 18.7431ZM19.892 29.1935C14.1279 29.1935 9.43199 24.5072 9.43199 18.7335C9.43199 12.9598 14.1279 8.28306 19.892 8.28306C25.6561 8.28306 30.3521 12.9694 30.3521 18.7431C30.3521 24.5168 25.6561 29.1935 19.892 29.1935Z" fill="black"/>
<path d="M34.5958 31.1565C35.0288 30.9352 35.4137 30.6465 35.7121 30.2424C36.4915 29.1742 36.3087 27.7789 36.1355 26.4221C36.02 25.5464 35.9045 24.6322 36.1066 24.0164C36.2894 23.439 36.9053 22.7943 37.4923 22.1784C38.4064 21.2161 39.4361 20.1287 39.4361 18.7527C39.4361 17.3766 38.4161 16.27 37.5019 15.3077C36.9149 14.6822 36.299 14.0471 36.1162 13.4697C35.9141 12.8539 36.0296 11.9397 36.1451 11.064C36.3183 9.7072 36.4915 8.31188 35.7217 7.24375C34.9422 6.16599 33.5469 5.90617 32.1997 5.64636C31.3337 5.48277 30.4387 5.31918 29.9287 4.94389C29.4187 4.57822 28.9953 3.78915 28.5815 3.01932C27.956 1.86458 27.2343 0.555868 25.9545 0.132462C24.7228 -0.271697 23.4622 0.324919 22.2401 0.90229C21.4221 1.2872 20.5849 1.68174 19.9113 1.68174C19.2377 1.68174 18.4005 1.2872 17.5826 0.90229C16.3605 0.324919 15.0999 -0.271697 13.8682 0.132462C12.5787 0.546245 11.9051 1.80684 11.2412 3.01932C10.8274 3.77952 10.3943 4.57822 9.89395 4.94389C9.37432 5.31918 8.48901 5.49239 7.62296 5.64636C6.27576 5.89655 4.88045 6.16599 4.101 7.24375C3.32154 8.31188 3.50438 9.7072 3.67759 11.064C3.79306 11.9397 3.90854 12.8539 3.70646 13.4697C3.52362 14.0471 2.90776 14.6918 2.32077 15.3077C1.4066 16.27 0.376953 17.3574 0.376953 18.7334C0.376953 20.1095 1.41622 21.1969 2.32077 22.1592C2.90776 22.7846 3.52362 23.4198 3.70646 23.9971C3.90854 24.613 3.79306 25.5272 3.67759 26.4028C3.50438 27.7597 3.33117 29.155 4.101 30.2231C4.3993 30.6273 4.78422 30.9256 5.21725 31.1373L1.02168 38.4025C0.867718 38.672 0.886964 39.0088 1.07942 39.259C1.27188 39.5092 1.58943 39.615 1.88774 39.538L8.08486 37.8733L9.74961 44.0704C9.82659 44.3687 10.0864 44.59 10.3943 44.6381C10.4328 44.6381 10.4617 44.6478 10.4906 44.6478C10.76 44.6478 11.0198 44.5034 11.1545 44.2628L15.0903 37.4402C15.9275 37.344 16.7743 36.9495 17.5922 36.5646C18.4102 36.1797 19.2474 35.7851 19.921 35.7851C20.5946 35.7851 21.4317 36.1797 22.2497 36.5646C23.0676 36.9495 23.9144 37.3536 24.7516 37.4402L28.6874 44.2628C28.8221 44.5034 29.0819 44.6478 29.3513 44.6478C29.3802 44.6478 29.4187 44.6478 29.4476 44.6381C29.7555 44.5996 30.0057 44.3783 30.0923 44.0704L31.7571 37.8733L37.9542 39.538C38.2525 39.615 38.57 39.5092 38.7625 39.259C38.955 39.0088 38.9742 38.672 38.8202 38.4025L34.5958 31.1565ZM10.7215 41.8956L9.34545 36.7474C9.2396 36.3336 8.81619 36.0931 8.40241 36.1989L3.25418 37.575L6.67992 31.6377C6.97823 31.705 7.28616 31.7628 7.59409 31.8205C8.46015 31.9841 9.35507 32.1477 9.86508 32.523C10.3751 32.8886 10.7985 33.6777 11.2123 34.4475C11.7704 35.4772 12.3959 36.6223 13.4352 37.1612L10.7215 41.8956ZM19.8921 34.2551C18.8721 34.2551 17.8713 34.7266 16.909 35.1789C15.9563 35.6312 14.9748 36.093 14.3301 35.8813C13.6276 35.6504 13.0984 34.6689 12.5787 33.7258C12.0783 32.8117 11.5683 31.8686 10.7793 31.2912C9.98056 30.7139 8.91242 30.5118 7.88278 30.3193C6.83388 30.1173 5.7465 29.9152 5.31347 29.3378C4.89969 28.7701 5.03441 27.6731 5.16913 26.6242C5.30385 25.5753 5.43857 24.4975 5.13064 23.5449C4.83233 22.6403 4.101 21.8609 3.39853 21.1199C2.64795 20.3308 1.86849 19.5129 1.86849 18.7527C1.86849 17.9925 2.64795 17.1745 3.39853 16.3855C4.11062 15.6349 4.84195 14.865 5.13064 13.9605C5.43857 13.0078 5.30385 11.9301 5.16913 10.8812C5.03441 9.82267 4.89969 8.73529 5.31347 8.16754C5.73688 7.58055 6.82426 7.37847 7.88278 7.18601C8.91242 6.99355 9.98056 6.79147 10.7793 6.2141C11.5683 5.64635 12.0783 4.69369 12.5787 3.77952C13.0984 2.82686 13.6276 1.85495 14.3301 1.624C14.9844 1.4123 15.966 1.8742 16.909 2.32647C17.8713 2.77875 18.8721 3.25027 19.8921 3.25027C20.9121 3.25027 21.9129 2.77875 22.8752 2.32647C23.8278 1.8742 24.8094 1.4123 25.4541 1.624C26.1566 1.85495 26.6858 2.83648 27.2055 3.77952C27.7058 4.69369 28.2159 5.63673 29.0049 6.2141C29.8036 6.79147 30.8718 6.99355 31.9014 7.18601C32.9503 7.38809 34.0377 7.59017 34.4707 8.16754C34.8845 8.73529 34.7498 9.83229 34.615 10.8812C34.4803 11.9301 34.3456 13.0078 34.6535 13.9605C34.9518 14.865 35.6832 15.6445 36.3857 16.3855C37.1362 17.1745 37.9157 17.9925 37.9157 18.7527C37.9157 19.5129 37.1362 20.3308 36.3857 21.1199C35.6736 21.8705 34.9422 22.6403 34.6535 23.5449C34.3456 24.4975 34.4803 25.5753 34.615 26.6242C34.7498 27.6827 34.8845 28.7701 34.4707 29.3378C34.0473 29.9248 32.9599 30.1269 31.9014 30.3193C30.8718 30.5118 29.8036 30.7139 29.0049 31.2912C28.2159 31.859 27.7058 32.8117 27.2055 33.7258C26.6858 34.6785 26.1566 35.6504 25.4541 35.8813C24.7997 36.093 23.8182 35.6312 22.8752 35.1789C21.9129 34.7266 20.9121 34.2551 19.8921 34.2551ZM31.3818 36.1989C30.968 36.0931 30.5446 36.3336 30.4387 36.7474L29.0627 41.8956L26.3394 37.1804C27.369 36.6512 27.9753 35.5445 28.5623 34.4668C28.9761 33.7066 29.4091 32.9079 29.9095 32.5422C30.4291 32.1669 31.3144 31.9937 32.1805 31.8398C32.4884 31.782 32.7963 31.7243 33.0946 31.6569L36.5204 37.5942L31.3818 36.1989Z" fill="black"/>
<path d="M27.1096 14.0279C26.8113 13.7296 26.3205 13.7296 26.0222 14.0279L18.2277 21.8224L13.7723 17.3671C13.474 17.0688 12.9832 17.0688 12.6849 17.3671C12.3866 17.6654 12.3866 18.1561 12.6849 18.4544L17.6888 23.4583C17.8331 23.6027 18.0256 23.6796 18.2373 23.6796C18.449 23.6796 18.6415 23.6027 18.7858 23.4583L27.1096 15.1153C27.4079 14.817 27.4079 14.3262 27.1096 14.0279V14.0279Z" fill="black"/>
</svg>
