<svg width="27" height="27" viewBox="0 0 27 27" fill="none" xmlns="http://www.w3.org/2000/svg">
<path d="M0.84375 16.7062C1.06753 16.7062 1.28214 16.7951 1.44037 16.9534C1.59861 17.1116 1.6875 17.3262 1.6875 17.55V21.7687C1.6875 22.2163 1.86529 22.6455 2.18176 22.962C2.49822 23.2784 2.92745 23.4562 3.375 23.4562H23.625C24.0726 23.4562 24.5018 23.2784 24.8182 22.962C25.1347 22.6455 25.3125 22.2163 25.3125 21.7687V17.55C25.3125 17.3262 25.4014 17.1116 25.5596 16.9534C25.7179 16.7951 25.9325 16.7062 26.1562 16.7062C26.38 16.7062 26.5946 16.7951 26.7529 16.9534C26.9111 17.1116 27 17.3262 27 17.55V21.7687C27 22.6638 26.6444 23.5223 26.0115 24.1552C25.3785 24.7882 24.5201 25.1437 23.625 25.1437H3.375C2.47989 25.1437 1.62145 24.7882 0.988515 24.1552C0.355579 23.5223 0 22.6638 0 21.7687V17.55C0 17.3262 0.0888949 17.1116 0.247129 16.9534C0.405362 16.7951 0.619974 16.7062 0.84375 16.7062Z" fill="#2194F3"/>
<path d="M12.9026 1.93389C12.981 1.85531 13.0741 1.79297 13.1766 1.75044C13.2791 1.7079 13.389 1.686 13.5 1.686C13.611 1.686 13.7209 1.7079 13.8234 1.75044C13.9259 1.79297 14.019 1.85531 14.0974 1.93389L19.1599 6.99639C19.3183 7.15482 19.4073 7.3697 19.4073 7.59376C19.4073 7.81782 19.3183 8.0327 19.1599 8.19114C19.0014 8.34957 18.7866 8.43858 18.5625 8.43858C18.3384 8.43858 18.1236 8.34957 17.9651 8.19114L14.3437 4.56808V19.4063C14.3437 19.63 14.2549 19.8447 14.0966 20.0029C13.9384 20.1611 13.7238 20.25 13.5 20.25C13.2762 20.25 13.0616 20.1611 12.9034 20.0029C12.7451 19.8447 12.6562 19.63 12.6562 19.4063V4.56808L9.03487 8.19114C8.95642 8.26959 8.86329 8.33182 8.7608 8.37427C8.6583 8.41673 8.54844 8.43858 8.4375 8.43858C8.32656 8.43858 8.2167 8.41673 8.1142 8.37427C8.0117 8.33182 7.91857 8.26959 7.84012 8.19114C7.76167 8.11269 7.69945 8.01956 7.65699 7.91706C7.61453 7.81456 7.59268 7.70471 7.59268 7.59376C7.59268 7.48282 7.61453 7.37296 7.65699 7.27047C7.69945 7.16797 7.76167 7.07484 7.84012 6.99639L12.9026 1.93389Z" fill="#2194F3"/>
</svg>
