<?xml version="1.0" standalone="no"?>
<!DOCTYPE svg PUBLIC "-//W3C//DTD SVG 20010904//EN"
 "http://www.w3.org/TR/2001/REC-SVG-20010904/DTD/svg10.dtd">
<svg version="1.0" xmlns="http://www.w3.org/2000/svg"
 width="512.000000pt" height="512.000000pt" viewBox="0 0 512.000000 512.000000"
 preserveAspectRatio="xMidYMid meet">

<g transform="translate(0.000000,512.000000) scale(0.100000,-0.100000)"
fill="#ec8b2d" stroke="none">
<path d="M2415 5110 c-117 -24 -247 -104 -317 -197 -48 -64 17 63 -1089 -2113
-529 -1042 -971 -1922 -981 -1955 -88 -279 46 -606 297 -729 116 -57 -12 -53
2250 -57 l2090 -2 66 21 c172 57 312 204 368 386 31 99 30 294 -2 386 -22 64
-2084 3957 -2138 4036 -116 170 -344 264 -544 224z m165 -405 c16 -8 37 -27
48 -42 11 -16 487 -908 1058 -1983 l1038 -1955 1 -70 c0 -58 -4 -78 -27 -116
-15 -25 -40 -55 -55 -65 -32 -22 210 -20 -2429 -16 l-1691 2 -34 23 c-46 31
-80 96 -86 165 -6 70 -112 -146 1091 2222 732 1440 914 1791 943 1818 41 36
93 43 143 17z"/>
<path d="M2442 3739 c-26 -13 -55 -39 -70 -62 l-27 -41 -3 -766 -2 -766 29
-46 c66 -104 210 -122 305 -39 10 9 28 34 40 56 21 40 21 42 21 791 l0 751
-30 48 c-56 90 -167 121 -263 74z"/>
<path d="M2445 1533 c-67 -24 -109 -55 -143 -106 -40 -58 -52 -99 -52 -173 0
-164 152 -299 314 -280 109 12 215 98 245 196 16 52 14 140 -4 190 -50 141
-221 222 -360 173z"/>
</g>
</svg>
